# Blender v2.91.0 OBJ File: ''
# www.blender.org
mtllib articulationR2D2.mtl
o r2d2.001
v 0.179634 1.261896 1.104469
v -0.146398 1.261896 1.104469
v -0.146398 1.045814 0.476920
v 0.179634 1.045814 0.476920
v 0.179634 2.274782 0.755704
v -0.146399 2.274782 0.755704
v 0.179634 2.058700 0.128156
v -0.146399 2.058700 0.128156
v 0.101352 0.756685 0.768616
v -0.068211 0.756685 0.768616
v -0.145300 1.052686 0.475470
v 0.178356 1.052686 0.475471
v -0.145300 1.270334 1.107567
v 0.178356 1.270334 1.107567
v 0.101352 0.857238 1.060645
v -0.068211 0.857238 1.060645
vt 0.000000 0.000000
vt 0.000000 0.000000
vt 0.000000 0.000000
vt 0.000000 0.000000
vt 0.000000 0.000000
vt 0.000000 0.000000
vt 0.000000 0.000000
vt 0.000000 0.000000
vt 0.000000 0.000000
vt 0.000000 0.000000
vt 0.000000 0.000000
vt 0.000000 0.000000
vt 0.000000 0.000000
vt 0.000000 0.000000
vt 0.000000 0.000000
vt 0.000000 0.000000
vn 0.0000 -0.9455 0.3256
vn 0.0000 0.3256 0.9455
vn 1.0000 -0.0000 0.0000
vn -1.0000 -0.0000 0.0000
vn 0.0000 -0.7037 -0.7105
vn 0.0000 0.9455 -0.3256
vn 0.9796 -0.1900 0.0654
vn 0.0000 -0.1129 0.9936
vn -0.9796 -0.1902 0.0655
vn 0.0000 -0.3256 -0.9455
usemtl Material12.001
s 1
f 1/1/1 2/2/1 3/3/1 4/4/1
f 2/2/2 1/1/2 5/5/2 6/6/2
f 5/5/3 1/1/3 4/4/3 7/7/3
f 3/3/4 2/2/4 6/6/4 8/8/4
f 9/9/5 10/10/5 11/11/5 12/12/5
f 8/8/6 6/6/6 5/5/6 7/7/6
f 11/11/6 13/13/6 14/14/6 12/12/6
f 12/12/7 14/14/7 15/15/7 9/9/7
f 16/16/8 15/15/8 14/14/8 13/13/8
f 15/15/1 16/16/1 10/10/1 9/9/1
f 16/16/9 13/13/9 11/11/9 10/10/9
f 4/4/10 3/3/10 8/8/10 7/7/10
