# Blender v2.91.0 OBJ File: 'feetBattleship.blend'
# www.blender.org
mtllib BattleshipCalf.mtl
o Cube_Cube.006
v -0.086595 2.141386 0.200063
v -0.259189 0.620186 0.598811
v -0.086595 2.141386 -0.200063
v -0.259189 0.620186 -0.598811
v 0.086595 2.141386 0.200063
v 0.259189 0.620186 0.598811
v 0.086595 2.141386 -0.200063
v 0.259189 0.620186 -0.598811
v -0.101437 -2.427471 0.441059
v -0.259189 -2.269719 0.598811
v -0.259189 -2.269719 -0.598811
v -0.101437 -2.427471 -0.441059
v 0.259189 -2.269719 0.598811
v 0.101437 -2.427471 0.441059
v 0.259189 -2.269719 -0.598811
v 0.101437 -2.427471 -0.441059
vt 0.708237 0.583237
vt 0.791762 0.583237
vt 0.791763 0.666763
vt 0.708237 0.666763
vt 0.383632 0.250000
vt 0.541763 0.250000
vt 0.541763 0.500000
vt 0.383632 0.500000
vt 0.383632 0.750000
vt 0.541763 0.750000
vt 0.541763 1.000000
vt 0.383632 1.000000
vt 0.875000 0.500000
vt 0.875000 0.750000
vt 0.625000 0.500000
vt 0.625000 0.750000
vt 0.383632 0.000000
vt 0.541763 0.000000
vt 0.201080 0.532930
vt 0.201080 0.717070
vt 0.125000 0.750000
vt 0.125000 0.500000
vt 0.298920 0.532930
vt 0.375000 0.500000
vt 0.298920 0.717070
vt 0.375000 0.750000
vn 0.0000 1.0000 0.0000
vn 0.0000 0.0000 -1.0000
vn 0.0000 0.0000 1.0000
vn 1.0000 0.0000 0.0000
vn -0.9936 0.1127 0.0000
vn 0.0000 0.2536 -0.9673
vn 0.9936 0.1127 0.0000
vn 0.0000 0.2536 0.9673
vn -1.0000 0.0000 0.0000
vn -0.7071 -0.7071 0.0000
vn 0.0000 -0.7071 -0.7071
vn 0.7071 -0.7071 0.0000
vn 0.0000 -0.7071 0.7071
vn 0.0000 -1.0000 0.0000
usemtl None
s off
f 7/1/1 3/2/1 1/3/1 5/4/1
f 11/5/2 4/6/2 8/7/2 15/8/2
f 13/9/3 6/10/3 2/11/3 10/12/3
f 15/8/4 8/7/4 6/10/4 13/9/4
f 1/3/5 3/2/5 4/13/5 2/14/5
f 3/2/6 7/1/6 8/15/6 4/13/6
f 7/1/7 5/4/7 6/10/7 8/7/7
f 5/4/8 1/3/8 2/14/8 6/16/8
f 10/17/9 2/18/9 4/6/9 11/5/9
f 12/19/10 9/20/10 10/21/10 11/22/10
f 16/23/11 12/19/11 11/22/11 15/24/11
f 14/25/12 16/23/12 15/8/12 13/9/12
f 9/20/13 14/25/13 13/26/13 10/21/13
f 12/19/14 16/23/14 14/25/14 9/20/14
