# Blender v2.91.0 OBJ File: ''
# www.blender.org
mtllib CubeBackground.mtl
o Cube.001
v -1.000000 1.000000 1.000000
v -1.000000 -1.000000 -1.000000
v -1.000000 -1.000000 1.000000
v -1.000000 1.000000 -1.000000
v 1.000000 -1.000000 -1.000000
v 1.000000 1.000000 -1.000000
v 1.000000 -1.000000 1.000000
v 1.000000 1.000000 1.000000
vt 0.000000 1.000000
vt 0.000000 0.000000
vt 1.000000 0.000000
vt 0.000000 1.000000
vt 0.000000 0.000000
vt 1.000000 0.000000
vt 0.000000 1.000000
vt 0.000000 0.000000
vt -1.000000 0.000000
vt 0.000000 1.000000
vt 0.000000 0.000000
vt -1.000000 0.000000
vt 0.000000 -1.000000
vt -1.000000 0.000000
vt 0.000000 0.000000
vt 0.000000 -1.000000
vt 1.000000 1.000000
vt 1.000000 1.000000
vt -1.000000 1.000000
vt -1.000000 1.000000
vt 1.000000 -1.000000
vt -1.000000 -1.000000
vn 1.0000 0.0000 0.0000
vn 0.0000 -0.0000 1.0000
vn -1.0000 0.0000 0.0000
vn 0.0000 0.0000 -1.0000
vn 0.0000 1.0000 0.0000
vn 0.0000 -1.0000 -0.0000
usemtl Default_OBJ
s 1
f 1/1/1 3/2/1 2/3/1
f 4/4/2 2/5/2 5/6/2
f 6/7/3 5/8/3 7/9/3
f 8/10/4 7/11/4 3/12/4
f 5/6/5 2/5/5 3/13/5
f 4/14/6 6/15/6 8/16/6
f 1/1/1 2/3/1 4/17/1
f 4/4/2 5/6/2 6/18/2
f 6/7/3 7/9/3 8/19/3
f 8/10/4 3/12/4 1/20/4
f 5/6/5 3/13/5 7/21/5
f 4/14/6 8/16/6 1/22/6
