# Aspose.3D Wavefront OBJ Exporter
# Copyright 2004-2020 Aspose Pty Ltd.
# File created: 12/22/2020 11:20:42 PM


#
# object obj_31690432
#

v 70.71067810058593752 0 7.494360111266469E-16
v 4.440892098500626E-14 50 -1.480297330873836E-15
v 3.58034431705641E-15 0 70.71067810058593752
v -70.71067810058593752 0 1.6644571802109688E-14
v 5.079216127551467E-15 0 -70.71067810058593752
# 5 vertices

vn 0.5 0.7071067690849304 0.5
vn -0.5 0.7071067690849304 0.5
vn -0.5 0.7071067690849304 -0.5
vn 0.5 0.7071067690849304 -0.5
vn 0 -1 0
# 5 vertex normals

g obj_31690432
s 1
f 1//1 2//1 3//1
f 3//2 2//2 4//2
f 4//3 2//3 5//3
f 5//4 2//4 1//4
f 1//5 3//5 5//5
f 5//5 3//5 4//5
#6 polygons

