# Blender v2.91.0 OBJ File: ''
# www.blender.org
mtllib tieFighterWindowGlass.mtl
o Sphere.001
v 0.495509 -0.194618 -0.068780
v 0.448513 -0.282542 -0.068546
v 0.308201 0.422854 -0.067842
v 0.385266 0.359608 -0.068230
v 0.385266 -0.359608 -0.068230
v 0.448513 0.282542 -0.068546
v 0.308201 -0.422854 -0.067842
v 0.495509 0.194618 -0.068780
v 0.220277 -0.469850 -0.067397
v 0.524449 0.099216 -0.068924
v 0.124874 -0.498790 -0.066912
v 0.534221 -0.000000 -0.068972
v 0.000000 0.508562 -0.066371
v 0.124874 0.498790 -0.066912
v 0.000000 -0.508562 -0.066371
v 0.524449 -0.099216 -0.068924
v 0.220277 0.469850 -0.067398
v -0.448513 -0.282542 -0.068546
v -0.495509 -0.194618 -0.068780
v -0.385266 0.359608 -0.068230
v -0.308201 0.422854 -0.067842
v -0.385266 -0.359608 -0.068230
v -0.448513 0.282542 -0.068546
v -0.308201 -0.422854 -0.067842
v -0.495509 0.194618 -0.068780
v -0.220277 -0.469850 -0.067397
v -0.524449 0.099216 -0.068924
v -0.124874 -0.498790 -0.066912
v -0.534221 -0.000000 -0.068972
v -0.124874 0.498790 -0.066912
v -0.524449 -0.099216 -0.068924
v -0.220277 0.469850 -0.067398
v 0.052338 -0.118676 0.033711
v 0.074546 -0.106805 0.033650
v 0.000000 -0.000000 0.038447
v 0.000000 -0.000000 0.038447
v 0.129167 0.025060 0.033502
v 0.121857 0.049157 0.033522
v 0.000000 -0.000000 0.038447
v 0.000000 -0.000000 0.038447
v 0.028241 -0.125986 0.033776
v 0.000000 -0.000000 0.038447
v 0.131635 -0.000000 0.033495
v 0.000000 -0.000000 0.038447
v 0.028241 0.125986 0.033776
v 0.000000 0.128454 0.033849
v 0.000000 -0.000000 0.038447
v 0.000000 -0.000000 0.038447
v 0.000000 -0.128454 0.033849
v 0.000000 -0.000000 0.038447
v 0.129167 -0.025060 0.033502
v 0.000000 -0.000000 0.038447
v 0.052338 0.118676 0.033318
v 0.000000 -0.000000 0.038447
v 0.121857 -0.049157 0.033522
v 0.000000 -0.000000 0.038447
v 0.074472 0.106699 0.033134
v 0.000000 -0.000000 0.038447
v 0.109986 -0.071365 0.033554
v 0.000000 -0.000000 0.038447
v 0.093918 0.090740 0.033421
v 0.000000 -0.000000 0.038447
v 0.094012 -0.090831 0.033597
v 0.000000 -0.000000 0.038447
v 0.109986 0.071365 0.033554
v 0.000000 -0.000000 0.038447
v 0.495509 0.194618 -0.068780
v 0.448513 0.282542 -0.068546
v 0.329959 0.214095 -0.025849
v 0.365571 0.147472 -0.026035
v 0.219973 0.142730 0.015697
v 0.243714 0.098314 0.015591
v 0.308201 -0.422854 -0.067842
v 0.385266 -0.359608 -0.068230
v 0.282035 -0.272492 -0.025599
v 0.223638 -0.320416 -0.025294
v 0.188023 -0.181661 0.015839
v 0.149092 -0.213611 0.016013
v 0.385266 0.359608 -0.068230
v 0.282035 0.272492 -0.025599
v 0.188023 0.181661 0.015839
v 0.448513 -0.282542 -0.068546
v 0.329959 -0.214095 -0.025849
v 0.219973 -0.142730 0.015697
v 0.308201 0.422854 -0.067842
v 0.223638 0.320417 -0.025294
v 0.150884 0.216178 0.015368
v 0.495509 -0.194618 -0.068780
v 0.365571 -0.147472 -0.026035
v 0.243714 -0.098314 0.015591
v 0.220277 0.469850 -0.067398
v 0.157014 0.356028 -0.024944
v 0.104676 0.237352 0.016211
v 0.524449 -0.099216 -0.068924
v 0.387500 -0.075180 -0.026148
v 0.258333 -0.050120 0.015526
v 0.124874 0.498790 -0.066912
v 0.084723 0.377957 -0.024564
v 0.056482 0.251971 0.016427
v 0.534221 -0.000000 -0.068972
v 0.394904 -0.000000 -0.026187
v 0.263270 -0.000000 0.015504
v 0.000000 -0.508562 -0.066371
v 0.124874 -0.498790 -0.066912
v 0.084723 -0.377957 -0.024563
v 0.000000 -0.385362 -0.024141
v 0.056482 -0.251971 0.016427
v 0.000000 -0.256908 0.016666
v 0.000000 0.508562 -0.066371
v 0.000000 0.385362 -0.024141
v 0.000000 0.256908 0.016666
v 0.524449 0.099216 -0.068924
v 0.387500 0.075180 -0.026148
v 0.258333 0.050120 0.015526
v 0.220277 -0.469850 -0.067397
v 0.158173 -0.350967 -0.023444
v 0.104676 -0.237352 0.016212
v -0.052338 -0.118676 0.033711
v -0.074546 -0.106805 0.033650
v -0.129167 0.025060 0.033502
v -0.121857 0.049157 0.033522
v -0.028241 -0.125986 0.033776
v -0.131635 -0.000000 0.033495
v -0.028241 0.125986 0.033776
v -0.129167 -0.025060 0.033502
v -0.052338 0.118676 0.033318
v -0.121857 -0.049157 0.033522
v -0.074472 0.106699 0.033134
v -0.109986 -0.071365 0.033554
v -0.093918 0.090740 0.033421
v -0.094012 -0.090831 0.033597
v -0.109986 0.071365 0.033554
v -0.495509 0.194618 -0.068780
v -0.365571 0.147472 -0.026035
v -0.329959 0.214095 -0.025849
v -0.448513 0.282542 -0.068546
v -0.243714 0.098314 0.015591
v -0.219973 0.142730 0.015697
v -0.308201 -0.422854 -0.067842
v -0.223638 -0.320416 -0.025294
v -0.282035 -0.272492 -0.025599
v -0.385266 -0.359608 -0.068230
v -0.149092 -0.213611 0.016013
v -0.188023 -0.181661 0.015839
v -0.282035 0.272492 -0.025599
v -0.385266 0.359608 -0.068230
v -0.188023 0.181661 0.015839
v -0.329959 -0.214095 -0.025849
v -0.448513 -0.282542 -0.068546
v -0.219973 -0.142730 0.015697
v -0.223638 0.320417 -0.025294
v -0.308201 0.422854 -0.067842
v -0.150884 0.216178 0.015368
v -0.365571 -0.147472 -0.026035
v -0.495509 -0.194618 -0.068780
v -0.243714 -0.098314 0.015591
v -0.157014 0.356028 -0.024944
v -0.220277 0.469850 -0.067398
v -0.104676 0.237352 0.016211
v -0.387500 -0.075180 -0.026148
v -0.524449 -0.099216 -0.068924
v -0.258333 -0.050120 0.015526
v -0.084723 0.377957 -0.024564
v -0.124874 0.498790 -0.066912
v -0.056482 0.251971 0.016427
v -0.394904 -0.000000 -0.026187
v -0.534221 -0.000000 -0.068972
v -0.263270 -0.000000 0.015504
v -0.084723 -0.377957 -0.024563
v -0.124874 -0.498790 -0.066912
v -0.056482 -0.251971 0.016427
v -0.387500 0.075180 -0.026148
v -0.524449 0.099216 -0.068924
v -0.258333 0.050120 0.015526
v -0.158173 -0.350967 -0.023444
v -0.220277 -0.469850 -0.067397
v -0.104676 -0.237352 0.016212
vt 0.490200 0.708600
vt 0.488100 0.707300
vt 0.495200 0.695700
vt 0.495200 0.695700
vt 0.482900 0.692900
vt 0.483500 0.690300
vt 0.495200 0.695700
vt 0.495200 0.695700
vt 0.492500 0.709400
vt 0.495200 0.695700
vt 0.482600 0.695700
vt 0.495200 0.695700
vt 0.492400 0.682100
vt 0.495100 0.681800
vt 0.495200 0.695700
vt 0.495200 0.695700
vt 0.495200 0.709700
vt 0.495200 0.695700
vt 0.482900 0.698400
vt 0.495200 0.695700
vt 0.490100 0.682800
vt 0.495200 0.695700
vt 0.483600 0.701000
vt 0.495200 0.695700
vt 0.488000 0.684100
vt 0.495200 0.695700
vt 0.484700 0.703400
vt 0.495200 0.695700
vt 0.486200 0.685800
vt 0.495200 0.695700
vt 0.486200 0.705600
vt 0.495200 0.695700
vt 0.484700 0.687900
vt 0.495200 0.695700
vt 0.447300 0.676000
vt 0.451700 0.666500
vt 0.463300 0.673300
vt 0.460000 0.680500
vt 0.474100 0.680400
vt 0.471800 0.685200
vt 0.465300 0.743300
vt 0.457900 0.736400
vt 0.468000 0.726200
vt 0.473600 0.731500
vt 0.477200 0.715700
vt 0.480900 0.719200
vt 0.457700 0.658200
vt 0.467900 0.667000
vt 0.477100 0.676200
vt 0.451900 0.727900
vt 0.463400 0.719800
vt 0.474100 0.711400
vt 0.465100 0.651400
vt 0.473400 0.661800
vt 0.480600 0.672500
vt 0.447400 0.718300
vt 0.460000 0.712500
vt 0.471900 0.706600
vt 0.473400 0.646400
vt 0.479700 0.658000
vt 0.485000 0.670200
vt 0.444600 0.707900
vt 0.457900 0.704700
vt 0.470500 0.701300
vt 0.482500 0.643300
vt 0.486600 0.655700
vt 0.489600 0.668700
vt 0.443700 0.697100
vt 0.457200 0.696500
vt 0.470000 0.695900
vt 0.494600 0.752900
vt 0.482700 0.751700
vt 0.486800 0.737900
vt 0.494800 0.738700
vt 0.489700 0.723400
vt 0.495100 0.724000
vt 0.494300 0.642400
vt 0.494700 0.655000
vt 0.495000 0.668200
vt 0.444600 0.686400
vt 0.457900 0.688300
vt 0.470500 0.690400
vt 0.473600 0.748500
vt 0.479800 0.734800
vt 0.485100 0.721800
vt 0.490200 0.708600
vt 0.488100 0.707300
vt 0.482900 0.692900
vt 0.483500 0.690300
vt 0.492500 0.709400
vt 0.482600 0.695700
vt 0.492400 0.682100
vt 0.482900 0.698400
vt 0.490100 0.682800
vt 0.483600 0.701000
vt 0.488000 0.684100
vt 0.484700 0.703400
vt 0.486200 0.685800
vt 0.486200 0.705600
vt 0.484700 0.687900
vt 0.447300 0.676000
vt 0.460000 0.680500
vt 0.463300 0.673300
vt 0.451700 0.666500
vt 0.471800 0.685200
vt 0.474100 0.680400
vt 0.465300 0.743300
vt 0.473600 0.731500
vt 0.468000 0.726200
vt 0.457900 0.736400
vt 0.480900 0.719200
vt 0.477200 0.715700
vt 0.467900 0.667000
vt 0.457700 0.658200
vt 0.477100 0.676200
vt 0.463400 0.719800
vt 0.451900 0.727900
vt 0.474100 0.711400
vt 0.473400 0.661800
vt 0.465100 0.651400
vt 0.480600 0.672500
vt 0.460000 0.712500
vt 0.447400 0.718300
vt 0.471900 0.706600
vt 0.479700 0.658000
vt 0.473400 0.646400
vt 0.485000 0.670200
vt 0.457900 0.704700
vt 0.444600 0.707900
vt 0.470500 0.701300
vt 0.486600 0.655700
vt 0.482500 0.643300
vt 0.489600 0.668700
vt 0.457200 0.696500
vt 0.443700 0.697100
vt 0.470000 0.695900
vt 0.486800 0.737900
vt 0.482700 0.751700
vt 0.489700 0.723400
vt 0.457900 0.688300
vt 0.444600 0.686400
vt 0.470500 0.690400
vt 0.479800 0.734800
vt 0.473600 0.748500
vt 0.485100 0.721800
vn 0.0365 -0.0803 0.9961
vn 0.0515 -0.0722 0.9961
vn -0.0000 -0.0293 0.9996
vn 0.0000 -0.0327 0.9995
vn 0.0880 0.0169 0.9960
vn 0.0831 0.0331 0.9960
vn 0.0000 0.0134 0.9999
vn 0.0000 0.0068 1.0000
vn 0.0197 -0.0857 0.9961
vn 0.0000 -0.0350 0.9994
vn 0.0896 -0.0000 0.9960
vn 0.0000 0.0000 1.0000
vn 0.0245 0.0841 0.9962
vn -0.0000 0.0871 0.9962
vn 0.0000 0.0358 0.9994
vn 0.0000 0.0332 0.9994
vn -0.0000 -0.0871 0.9962
vn 0.0000 -0.0358 0.9994
vn 0.0880 -0.0169 0.9960
vn 0.0000 -0.0068 1.0000
vn 0.0435 0.0777 0.9960
vn 0.0000 0.0313 0.9995
vn 0.0831 -0.0331 0.9960
vn 0.0000 -0.0134 0.9999
vn 0.0498 0.0744 0.9960
vn 0.0000 0.0350 0.9994
vn 0.0752 -0.0481 0.9960
vn 0.0000 -0.0195 0.9998
vn 0.0591 0.0665 0.9960
vn 0.0000 0.0333 0.9994
vn 0.0645 -0.0613 0.9960
vn 0.0000 -0.0249 0.9997
vn 0.0738 0.0500 0.9960
vn 0.0000 0.0225 0.9997
vn 0.2741 0.1107 0.9553
vn 0.2500 0.1625 0.9545
vn 0.2506 0.1650 0.9539
vn 0.2765 0.1129 0.9544
vn 0.1873 0.1231 0.9745
vn 0.2080 0.0844 0.9745
vn 0.1754 -0.2512 0.9519
vn 0.2167 -0.2098 0.9534
vn 0.2154 -0.2117 0.9533
vn 0.1724 -0.2510 0.9525
vn 0.1607 -0.1565 0.9745
vn 0.1278 -0.1839 0.9746
vn 0.2167 0.2098 0.9534
vn 0.2160 0.2115 0.9532
vn 0.1581 0.1562 0.9750
vn 0.2500 -0.1625 0.9545
vn 0.2506 -0.1650 0.9539
vn 0.1878 -0.1227 0.9745
vn 0.1747 0.2512 0.9520
vn 0.1719 0.2517 0.9524
vn 0.1287 0.1874 0.9738
vn 0.2741 -0.1107 0.9553
vn 0.2765 -0.1130 0.9544
vn 0.2080 -0.0844 0.9745
vn 0.1250 0.2850 0.9503
vn 0.1203 0.2831 0.9515
vn 0.0898 0.2027 0.9751
vn 0.2887 -0.0561 0.9558
vn 0.2922 -0.0574 0.9546
vn 0.2204 -0.0430 0.9745
vn 0.0663 0.3109 0.9481
vn 0.0617 0.3049 0.9504
vn 0.0474 0.2186 0.9747
vn 0.2936 0.0000 0.9559
vn 0.2975 0.0000 0.9547
vn 0.2245 0.0000 0.9745
vn 0.0000 -0.3229 0.9464
vn 0.0663 -0.3109 0.9481
vn 0.0615 -0.3051 0.9503
vn 0.0000 -0.3135 0.9496
vn 0.0462 -0.2193 0.9746
vn -0.0000 -0.2233 0.9748
vn 0.0000 0.3229 0.9464
vn 0.0000 0.3135 0.9496
vn -0.0000 0.2233 0.9748
vn 0.2887 0.0561 0.9558
vn 0.2922 0.0574 0.9546
vn 0.2204 0.0430 0.9745
vn 0.1253 -0.2852 0.9502
vn 0.1216 -0.2818 0.9517
vn 0.0893 -0.2051 0.9747
vn -0.0365 -0.0803 0.9961
vn -0.0515 -0.0722 0.9961
vn -0.0880 0.0169 0.9960
vn -0.0831 0.0331 0.9960
vn -0.0197 -0.0857 0.9961
vn -0.0896 -0.0000 0.9960
vn -0.0245 0.0841 0.9962
vn -0.0880 -0.0169 0.9960
vn -0.0435 0.0777 0.9960
vn -0.0831 -0.0331 0.9960
vn -0.0498 0.0744 0.9960
vn -0.0752 -0.0481 0.9960
vn -0.0591 0.0665 0.9960
vn -0.0645 -0.0613 0.9960
vn -0.0738 0.0500 0.9960
vn -0.2741 0.1107 0.9553
vn -0.2765 0.1129 0.9544
vn -0.2506 0.1650 0.9539
vn -0.2500 0.1625 0.9545
vn -0.2080 0.0844 0.9745
vn -0.1873 0.1231 0.9745
vn -0.1754 -0.2512 0.9519
vn -0.1724 -0.2510 0.9525
vn -0.2154 -0.2117 0.9533
vn -0.2167 -0.2098 0.9534
vn -0.1278 -0.1839 0.9746
vn -0.1607 -0.1565 0.9745
vn -0.2160 0.2115 0.9532
vn -0.2167 0.2098 0.9534
vn -0.1581 0.1562 0.9750
vn -0.2506 -0.1650 0.9539
vn -0.2500 -0.1625 0.9545
vn -0.1878 -0.1227 0.9745
vn -0.1719 0.2517 0.9524
vn -0.1747 0.2512 0.9520
vn -0.1287 0.1874 0.9738
vn -0.2765 -0.1130 0.9544
vn -0.2741 -0.1107 0.9553
vn -0.2080 -0.0844 0.9745
vn -0.1203 0.2831 0.9515
vn -0.1250 0.2850 0.9503
vn -0.0898 0.2027 0.9751
vn -0.2922 -0.0574 0.9546
vn -0.2887 -0.0561 0.9558
vn -0.2204 -0.0430 0.9745
vn -0.0617 0.3049 0.9504
vn -0.0663 0.3109 0.9481
vn -0.0474 0.2186 0.9747
vn -0.2975 0.0000 0.9547
vn -0.2936 0.0000 0.9559
vn -0.2245 0.0000 0.9745
vn -0.0615 -0.3051 0.9503
vn -0.0663 -0.3109 0.9481
vn -0.0462 -0.2193 0.9746
vn -0.2922 0.0574 0.9546
vn -0.2887 0.0561 0.9558
vn -0.2204 0.0430 0.9745
vn -0.1216 -0.2818 0.9517
vn -0.1253 -0.2852 0.9502
vn -0.0893 -0.2051 0.9747
usemtl Glass.001
s 1
f 33/1/1 34/2/2 35/3/3 36/4/4
f 37/5/5 38/6/6 39/7/7 40/8/8
f 41/9/9 33/1/1 36/4/4 42/10/10
f 43/11/11 37/5/5 40/8/8 44/12/12
f 45/13/13 46/14/14 47/15/15 48/16/16
f 49/17/17 41/9/9 42/10/10 50/18/18
f 51/19/19 43/11/11 44/12/12 52/20/20
f 53/21/21 45/13/13 48/16/16 54/22/22
f 55/23/23 51/19/19 52/20/20 56/24/24
f 57/25/25 53/21/21 54/22/22 58/26/26
f 59/27/27 55/23/23 56/24/24 60/28/28
f 61/29/29 57/25/25 58/26/26 62/30/30
f 63/31/31 59/27/27 60/28/28 64/32/32
f 65/33/33 61/29/29 62/30/30 66/34/34
f 34/2/2 63/31/31 64/32/32 35/3/3
f 38/6/6 65/33/33 66/34/34 39/7/7
f 67/35/35 68/36/36 69/37/37 70/38/38
f 70/38/38 69/37/37 71/39/39 72/40/40
f 72/40/40 71/39/39 65/33/33 38/6/6
f 73/41/41 74/42/42 75/43/43 76/44/44
f 76/44/44 75/43/43 77/45/45 78/46/46
f 78/46/46 77/45/45 63/31/31 34/2/2
f 68/36/36 79/47/47 80/48/48 69/37/37
f 69/37/37 80/48/48 81/49/49 71/39/39
f 71/39/39 81/49/49 61/29/29 65/33/33
f 74/42/42 82/50/50 83/51/51 75/43/43
f 75/43/43 83/51/51 84/52/52 77/45/45
f 77/45/45 84/52/52 59/27/27 63/31/31
f 79/47/47 85/53/53 86/54/54 80/48/48
f 80/48/48 86/54/54 87/55/55 81/49/49
f 81/49/49 87/55/55 57/25/25 61/29/29
f 82/50/50 88/56/56 89/57/57 83/51/51
f 83/51/51 89/57/57 90/58/58 84/52/52
f 84/52/52 90/58/58 55/23/23 59/27/27
f 85/53/53 91/59/59 92/60/60 86/54/54
f 86/54/54 92/60/60 93/61/61 87/55/55
f 87/55/55 93/61/61 53/21/21 57/25/25
f 88/56/56 94/62/62 95/63/63 89/57/57
f 89/57/57 95/63/63 96/64/64 90/58/58
f 90/58/58 96/64/64 51/19/19 55/23/23
f 91/59/59 97/65/65 98/66/66 92/60/60
f 92/60/60 98/66/66 99/67/67 93/61/61
f 93/61/61 99/67/67 45/13/13 53/21/21
f 94/62/62 100/68/68 101/69/69 95/63/63
f 95/63/63 101/69/69 102/70/70 96/64/64
f 96/64/64 102/70/70 43/11/11 51/19/19
f 103/71/71 104/72/72 105/73/73 106/74/74
f 106/74/74 105/73/73 107/75/75 108/76/76
f 108/76/76 107/75/75 41/9/9 49/17/17
f 97/65/65 109/77/77 110/78/78 98/66/66
f 98/66/66 110/78/78 111/79/79 99/67/67
f 99/67/67 111/79/79 46/14/14 45/13/13
f 100/68/68 112/80/80 113/81/81 101/69/69
f 101/69/69 113/81/81 114/82/82 102/70/70
f 102/70/70 114/82/82 37/5/5 43/11/11
f 104/72/72 115/83/83 116/84/84 105/73/73
f 105/73/73 116/84/84 117/85/85 107/75/75
f 107/75/75 117/85/85 33/1/1 41/9/9
f 112/80/80 67/35/35 70/38/38 113/81/81
f 113/81/81 70/38/38 72/40/40 114/82/82
f 114/82/82 72/40/40 38/6/6 37/5/5
f 115/83/83 73/41/41 76/44/44 116/84/84
f 116/84/84 76/44/44 78/46/46 117/85/85
f 117/85/85 78/46/46 34/2/2 33/1/1
f 118/86/86 36/4/4 35/3/3 119/87/87
f 120/88/88 40/8/8 39/7/7 121/89/89
f 122/90/90 42/10/10 36/4/4 118/86/86
f 123/91/91 44/12/12 40/8/8 120/88/88
f 124/92/92 48/16/16 47/15/15 46/14/14
f 49/17/17 50/18/18 42/10/10 122/90/90
f 125/93/93 52/20/20 44/12/12 123/91/91
f 126/94/94 54/22/22 48/16/16 124/92/92
f 127/95/95 56/24/24 52/20/20 125/93/93
f 128/96/96 58/26/26 54/22/22 126/94/94
f 129/97/97 60/28/28 56/24/24 127/95/95
f 130/98/98 62/30/30 58/26/26 128/96/96
f 131/99/99 64/32/32 60/28/28 129/97/97
f 132/100/100 66/34/34 62/30/30 130/98/98
f 119/87/87 35/3/3 64/32/32 131/99/99
f 121/89/89 39/7/7 66/34/34 132/100/100
f 133/101/101 134/102/102 135/103/103 136/104/104
f 134/102/102 137/105/105 138/106/106 135/103/103
f 137/105/105 121/89/89 132/100/100 138/106/106
f 139/107/107 140/108/108 141/109/109 142/110/110
f 140/108/108 143/111/111 144/112/112 141/109/109
f 143/111/111 119/87/87 131/99/99 144/112/112
f 136/104/104 135/103/103 145/113/113 146/114/114
f 135/103/103 138/106/106 147/115/115 145/113/113
f 138/106/106 132/100/100 130/98/98 147/115/115
f 142/110/110 141/109/109 148/116/116 149/117/117
f 141/109/109 144/112/112 150/118/118 148/116/116
f 144/112/112 131/99/99 129/97/97 150/118/118
f 146/114/114 145/113/113 151/119/119 152/120/120
f 145/113/113 147/115/115 153/121/121 151/119/119
f 147/115/115 130/98/98 128/96/96 153/121/121
f 149/117/117 148/116/116 154/122/122 155/123/123
f 148/116/116 150/118/118 156/124/124 154/122/122
f 150/118/118 129/97/97 127/95/95 156/124/124
f 152/120/120 151/119/119 157/125/125 158/126/126
f 151/119/119 153/121/121 159/127/127 157/125/125
f 153/121/121 128/96/96 126/94/94 159/127/127
f 155/123/123 154/122/122 160/128/128 161/129/129
f 154/122/122 156/124/124 162/130/130 160/128/128
f 156/124/124 127/95/95 125/93/93 162/130/130
f 158/126/126 157/125/125 163/131/131 164/132/132
f 157/125/125 159/127/127 165/133/133 163/131/131
f 159/127/127 126/94/94 124/92/92 165/133/133
f 161/129/129 160/128/128 166/134/134 167/135/135
f 160/128/128 162/130/130 168/136/136 166/134/134
f 162/130/130 125/93/93 123/91/91 168/136/136
f 103/71/71 106/74/74 169/137/137 170/138/138
f 106/74/74 108/76/76 171/139/139 169/137/137
f 108/76/76 49/17/17 122/90/90 171/139/139
f 164/132/132 163/131/131 110/78/78 109/77/77
f 163/131/131 165/133/133 111/79/79 110/78/78
f 165/133/133 124/92/92 46/14/14 111/79/79
f 167/135/135 166/134/134 172/140/140 173/141/141
f 166/134/134 168/136/136 174/142/142 172/140/140
f 168/136/136 123/91/91 120/88/88 174/142/142
f 170/138/138 169/137/137 175/143/143 176/144/144
f 169/137/137 171/139/139 177/145/145 175/143/143
f 171/139/139 122/90/90 118/86/86 177/145/145
f 173/141/141 172/140/140 134/102/102 133/101/101
f 172/140/140 174/142/142 137/105/105 134/102/102
f 174/142/142 120/88/88 121/89/89 137/105/105
f 176/144/144 175/143/143 140/108/108 139/107/107
f 175/143/143 177/145/145 143/111/111 140/108/108
f 177/145/145 118/86/86 119/87/87 143/111/111
l 21 32
l 5 7
l 9 11
l 25 27
l 13 30
l 29 31
l 1 2
l 13 14
l 1 16
l 6 8
l 10 12
l 2 5
l 14 17
l 26 28
l 30 32
l 18 19
l 18 22
l 22 24
l 19 31
l 11 15
l 7 9
l 15 28
l 3 4
l 3 17
l 23 25
l 27 29
l 4 6
l 8 10
l 12 16
l 20 21
l 20 23
l 24 26
